<mxfile host="app.diagrams.net" agent="Mozilla/5.0 (Windows NT 10.0; Win64; x64) AppleWebKit/537.36 (KHTML, like Gecko) Chrome/141.0.0.0 Safari/537.36" version="28.2.5">
  <diagram name="PÃ¡gina-1" id="rYaQr-xI2JrS_xAo6EkZ">
    <mxGraphModel dx="679" dy="370" grid="1" gridSize="10" guides="1" tooltips="1" connect="1" arrows="1" fold="1" page="1" pageScale="1" pageWidth="827" pageHeight="1169" math="0" shadow="0">
      <root>
        <mxCell id="0" />
        <mxCell id="1" parent="0" />
        <mxCell id="1uuHPjt_Pnw_KstDfJXk-10" value="" style="rounded=0;whiteSpace=wrap;html=1;" vertex="1" parent="1">
          <mxGeometry x="240" y="210" width="120" height="230" as="geometry" />
        </mxCell>
        <mxCell id="1uuHPjt_Pnw_KstDfJXk-11" value="" style="endArrow=none;html=1;rounded=0;" edge="1" parent="1">
          <mxGeometry width="50" height="50" relative="1" as="geometry">
            <mxPoint x="240" y="240" as="sourcePoint" />
            <mxPoint x="360" y="240" as="targetPoint" />
          </mxGeometry>
        </mxCell>
        <mxCell id="1uuHPjt_Pnw_KstDfJXk-12" value="" style="endArrow=none;html=1;rounded=0;" edge="1" parent="1">
          <mxGeometry width="50" height="50" relative="1" as="geometry">
            <mxPoint x="240" y="310" as="sourcePoint" />
            <mxPoint x="360" y="310" as="targetPoint" />
          </mxGeometry>
        </mxCell>
        <mxCell id="1uuHPjt_Pnw_KstDfJXk-13" value="Livro" style="text;html=1;align=center;verticalAlign=middle;whiteSpace=wrap;rounded=0;" vertex="1" parent="1">
          <mxGeometry x="240" y="210" width="110" height="30" as="geometry" />
        </mxCell>
        <mxCell id="1uuHPjt_Pnw_KstDfJXk-14" value="-titulo: String&lt;div&gt;-autor: String&lt;/div&gt;&lt;div&gt;-isbn: String&lt;/div&gt;" style="text;html=1;align=left;verticalAlign=middle;whiteSpace=wrap;rounded=0;" vertex="1" parent="1">
          <mxGeometry x="240" y="240" width="120" height="70" as="geometry" />
        </mxCell>
        <mxCell id="1uuHPjt_Pnw_KstDfJXk-20" value="&lt;font style=&quot;font-size: 10px;&quot;&gt;+setTitulo(String titulo)&lt;/font&gt;&lt;div&gt;&lt;span style=&quot;font-size: 10px;&quot;&gt;+getTitulo(): String&amp;nbsp;&lt;/span&gt;&lt;/div&gt;&lt;div&gt;&lt;font style=&quot;font-size: 10px;&quot;&gt;+setAutor(String autor)&lt;/font&gt;&lt;div&gt;&lt;span style=&quot;font-size: 10px;&quot;&gt;+getAutor(): String&amp;nbsp;&lt;/span&gt;&lt;/div&gt;&lt;/div&gt;&lt;div&gt;&lt;font style=&quot;font-size: 10px;&quot;&gt;+setIsbn(String isbn)&lt;/font&gt;&lt;div&gt;&lt;span style=&quot;font-size: 10px;&quot;&gt;+getIsbn(): String&amp;nbsp;&lt;/span&gt;&lt;/div&gt;&lt;/div&gt;" style="text;html=1;align=center;verticalAlign=middle;whiteSpace=wrap;rounded=0;" vertex="1" parent="1">
          <mxGeometry x="240" y="310" width="120" height="130" as="geometry" />
        </mxCell>
        <mxCell id="1uuHPjt_Pnw_KstDfJXk-26" value="" style="rounded=0;whiteSpace=wrap;html=1;" vertex="1" parent="1">
          <mxGeometry x="400" y="150" width="120" height="120" as="geometry" />
        </mxCell>
        <mxCell id="1uuHPjt_Pnw_KstDfJXk-27" value="" style="endArrow=none;html=1;rounded=0;" edge="1" parent="1">
          <mxGeometry width="50" height="50" relative="1" as="geometry">
            <mxPoint x="400" y="180" as="sourcePoint" />
            <mxPoint x="520" y="180" as="targetPoint" />
          </mxGeometry>
        </mxCell>
        <mxCell id="1uuHPjt_Pnw_KstDfJXk-28" value="" style="endArrow=none;html=1;rounded=0;" edge="1" parent="1">
          <mxGeometry width="50" height="50" relative="1" as="geometry">
            <mxPoint x="400" y="250" as="sourcePoint" />
            <mxPoint x="520" y="250" as="targetPoint" />
          </mxGeometry>
        </mxCell>
        <mxCell id="1uuHPjt_Pnw_KstDfJXk-29" value="Emprestimo" style="text;html=1;align=center;verticalAlign=middle;whiteSpace=wrap;rounded=0;" vertex="1" parent="1">
          <mxGeometry x="400" y="150" width="120" height="30" as="geometry" />
        </mxCell>
        <mxCell id="1uuHPjt_Pnw_KstDfJXk-31" value="&lt;font style=&quot;font-size: 8px;&quot;&gt;-dataDeEmprestimo: LocalDate&lt;/font&gt;&lt;div&gt;&lt;font style=&quot;font-size: 8px;&quot;&gt;-dataDeDevolucao: LocalDate&lt;/font&gt;&lt;/div&gt;" style="text;html=1;align=center;verticalAlign=middle;whiteSpace=wrap;rounded=0;" vertex="1" parent="1">
          <mxGeometry x="400" y="180" width="120" height="70" as="geometry" />
        </mxCell>
        <mxCell id="1uuHPjt_Pnw_KstDfJXk-32" value="&lt;font style=&quot;font-size: 6px;&quot;&gt;+controleDeMultaPorAtrasoDeDevolucao()&lt;/font&gt;" style="text;html=1;align=center;verticalAlign=middle;whiteSpace=wrap;rounded=0;" vertex="1" parent="1">
          <mxGeometry x="400" y="250" width="120" height="20" as="geometry" />
        </mxCell>
        <mxCell id="1uuHPjt_Pnw_KstDfJXk-33" value="" style="rounded=0;whiteSpace=wrap;html=1;" vertex="1" parent="1">
          <mxGeometry x="440" y="320" width="120" height="120" as="geometry" />
        </mxCell>
        <mxCell id="1uuHPjt_Pnw_KstDfJXk-34" value="" style="endArrow=none;html=1;rounded=0;" edge="1" parent="1">
          <mxGeometry width="50" height="50" relative="1" as="geometry">
            <mxPoint x="440" y="350" as="sourcePoint" />
            <mxPoint x="560" y="350" as="targetPoint" />
          </mxGeometry>
        </mxCell>
        <mxCell id="1uuHPjt_Pnw_KstDfJXk-35" value="" style="endArrow=none;html=1;rounded=0;" edge="1" parent="1">
          <mxGeometry width="50" height="50" relative="1" as="geometry">
            <mxPoint x="440" y="420" as="sourcePoint" />
            <mxPoint x="560" y="420" as="targetPoint" />
          </mxGeometry>
        </mxCell>
        <mxCell id="1uuHPjt_Pnw_KstDfJXk-36" value="Publicacao" style="text;html=1;align=center;verticalAlign=middle;whiteSpace=wrap;rounded=0;" vertex="1" parent="1">
          <mxGeometry x="440" y="320" width="120" height="30" as="geometry" />
        </mxCell>
        <mxCell id="1uuHPjt_Pnw_KstDfJXk-37" value="" style="endArrow=classic;html=1;rounded=0;exitX=0.5;exitY=1;exitDx=0;exitDy=0;entryX=0.167;entryY=0.048;entryDx=0;entryDy=0;entryPerimeter=0;" edge="1" parent="1" source="1uuHPjt_Pnw_KstDfJXk-32" target="1uuHPjt_Pnw_KstDfJXk-36">
          <mxGeometry width="50" height="50" relative="1" as="geometry">
            <mxPoint x="220" y="400" as="sourcePoint" />
            <mxPoint x="270" y="350" as="targetPoint" />
          </mxGeometry>
        </mxCell>
        <mxCell id="1uuHPjt_Pnw_KstDfJXk-38" value="+titulo: String&lt;div&gt;+autor: String&lt;/div&gt;" style="text;html=1;align=center;verticalAlign=middle;whiteSpace=wrap;rounded=0;" vertex="1" parent="1">
          <mxGeometry x="440" y="350" width="120" height="70" as="geometry" />
        </mxCell>
        <mxCell id="1uuHPjt_Pnw_KstDfJXk-39" value="+exibirInformacao()" style="text;html=1;align=center;verticalAlign=middle;whiteSpace=wrap;rounded=0;" vertex="1" parent="1">
          <mxGeometry x="440" y="420" width="120" height="20" as="geometry" />
        </mxCell>
        <mxCell id="1uuHPjt_Pnw_KstDfJXk-40" value="" style="rounded=0;whiteSpace=wrap;html=1;" vertex="1" parent="1">
          <mxGeometry x="400" width="120" height="120" as="geometry" />
        </mxCell>
        <mxCell id="1uuHPjt_Pnw_KstDfJXk-41" value="" style="endArrow=none;html=1;rounded=0;" edge="1" parent="1">
          <mxGeometry width="50" height="50" relative="1" as="geometry">
            <mxPoint x="400" y="30" as="sourcePoint" />
            <mxPoint x="520" y="30" as="targetPoint" />
          </mxGeometry>
        </mxCell>
        <mxCell id="1uuHPjt_Pnw_KstDfJXk-42" value="" style="endArrow=none;html=1;rounded=0;" edge="1" parent="1">
          <mxGeometry width="50" height="50" relative="1" as="geometry">
            <mxPoint x="400" y="100" as="sourcePoint" />
            <mxPoint x="520" y="100" as="targetPoint" />
          </mxGeometry>
        </mxCell>
        <mxCell id="1uuHPjt_Pnw_KstDfJXk-43" value="Usuario" style="text;html=1;align=center;verticalAlign=middle;whiteSpace=wrap;rounded=0;" vertex="1" parent="1">
          <mxGeometry x="400" width="120" height="30" as="geometry" />
        </mxCell>
        <mxCell id="1uuHPjt_Pnw_KstDfJXk-44" value="+nome: String&lt;div&gt;+idade: int&lt;/div&gt;" style="text;html=1;align=center;verticalAlign=middle;whiteSpace=wrap;rounded=0;" vertex="1" parent="1">
          <mxGeometry x="400" y="30" width="120" height="70" as="geometry" />
        </mxCell>
        <mxCell id="1uuHPjt_Pnw_KstDfJXk-46" value="" style="rounded=0;whiteSpace=wrap;html=1;" vertex="1" parent="1">
          <mxGeometry x="240" y="470" width="120" height="120" as="geometry" />
        </mxCell>
        <mxCell id="1uuHPjt_Pnw_KstDfJXk-47" value="" style="endArrow=none;html=1;rounded=0;" edge="1" parent="1">
          <mxGeometry width="50" height="50" relative="1" as="geometry">
            <mxPoint x="240" y="500" as="sourcePoint" />
            <mxPoint x="360" y="500" as="targetPoint" />
          </mxGeometry>
        </mxCell>
        <mxCell id="1uuHPjt_Pnw_KstDfJXk-48" value="" style="endArrow=none;html=1;rounded=0;" edge="1" parent="1">
          <mxGeometry width="50" height="50" relative="1" as="geometry">
            <mxPoint x="240" y="570" as="sourcePoint" />
            <mxPoint x="360" y="570" as="targetPoint" />
          </mxGeometry>
        </mxCell>
        <mxCell id="1uuHPjt_Pnw_KstDfJXk-49" value="Revista" style="text;html=1;align=center;verticalAlign=middle;whiteSpace=wrap;rounded=0;" vertex="1" parent="1">
          <mxGeometry x="240" y="470" width="120" height="30" as="geometry" />
        </mxCell>
        <mxCell id="1uuHPjt_Pnw_KstDfJXk-51" value="+exibirInformacao()" style="text;html=1;align=center;verticalAlign=middle;whiteSpace=wrap;rounded=0;" vertex="1" parent="1">
          <mxGeometry x="240" y="570" width="120" height="20" as="geometry" />
        </mxCell>
        <mxCell id="1uuHPjt_Pnw_KstDfJXk-54" value="" style="endArrow=classic;html=1;rounded=0;entryX=0.5;entryY=0;entryDx=0;entryDy=0;exitX=0.5;exitY=1;exitDx=0;exitDy=0;" edge="1" parent="1" target="1uuHPjt_Pnw_KstDfJXk-29">
          <mxGeometry width="50" height="50" relative="1" as="geometry">
            <mxPoint x="460" y="120" as="sourcePoint" />
            <mxPoint x="340" y="50" as="targetPoint" />
          </mxGeometry>
        </mxCell>
        <mxCell id="1uuHPjt_Pnw_KstDfJXk-59" value="" style="endArrow=block;dashed=1;endFill=0;endSize=12;html=1;rounded=0;exitX=1.012;exitY=0.536;exitDx=0;exitDy=0;exitPerimeter=0;entryX=0;entryY=1;entryDx=0;entryDy=0;" edge="1" parent="1" source="1uuHPjt_Pnw_KstDfJXk-46" target="1uuHPjt_Pnw_KstDfJXk-39">
          <mxGeometry width="160" relative="1" as="geometry">
            <mxPoint x="420" y="560" as="sourcePoint" />
            <mxPoint x="640" y="500" as="targetPoint" />
          </mxGeometry>
        </mxCell>
        <mxCell id="1uuHPjt_Pnw_KstDfJXk-60" value="" style="endArrow=block;dashed=1;endFill=0;endSize=12;html=1;rounded=0;exitX=1.016;exitY=0.48;exitDx=0;exitDy=0;exitPerimeter=0;entryX=0;entryY=0.429;entryDx=0;entryDy=0;entryPerimeter=0;" edge="1" parent="1" source="1uuHPjt_Pnw_KstDfJXk-20" target="1uuHPjt_Pnw_KstDfJXk-38">
          <mxGeometry width="160" relative="1" as="geometry">
            <mxPoint x="460" y="584" as="sourcePoint" />
            <mxPoint x="539" y="490" as="targetPoint" />
          </mxGeometry>
        </mxCell>
        <mxCell id="1uuHPjt_Pnw_KstDfJXk-61" value="" style="rounded=0;whiteSpace=wrap;html=1;" vertex="1" parent="1">
          <mxGeometry x="640" y="320" width="120" height="120" as="geometry" />
        </mxCell>
        <mxCell id="1uuHPjt_Pnw_KstDfJXk-62" value="" style="endArrow=none;html=1;rounded=0;" edge="1" parent="1">
          <mxGeometry width="50" height="50" relative="1" as="geometry">
            <mxPoint x="640" y="350" as="sourcePoint" />
            <mxPoint x="760" y="350" as="targetPoint" />
          </mxGeometry>
        </mxCell>
        <mxCell id="1uuHPjt_Pnw_KstDfJXk-63" value="" style="endArrow=none;html=1;rounded=0;" edge="1" parent="1">
          <mxGeometry width="50" height="50" relative="1" as="geometry">
            <mxPoint x="640" y="420" as="sourcePoint" />
            <mxPoint x="760" y="420" as="targetPoint" />
          </mxGeometry>
        </mxCell>
        <mxCell id="1uuHPjt_Pnw_KstDfJXk-64" value="Biblioteca" style="text;html=1;align=center;verticalAlign=middle;whiteSpace=wrap;rounded=0;" vertex="1" parent="1">
          <mxGeometry x="640" y="320" width="120" height="30" as="geometry" />
        </mxCell>
        <mxCell id="1uuHPjt_Pnw_KstDfJXk-65" value="+nome: String&lt;div&gt;+publicacao: String&lt;/div&gt;" style="text;html=1;align=center;verticalAlign=middle;whiteSpace=wrap;rounded=0;" vertex="1" parent="1">
          <mxGeometry x="640" y="350" width="120" height="70" as="geometry" />
        </mxCell>
        <mxCell id="1uuHPjt_Pnw_KstDfJXk-67" value="" style="endArrow=diamondThin;endFill=1;endSize=24;html=1;rounded=0;exitX=1;exitY=0.5;exitDx=0;exitDy=0;entryX=0;entryY=0.5;entryDx=0;entryDy=0;" edge="1" parent="1" source="1uuHPjt_Pnw_KstDfJXk-38" target="1uuHPjt_Pnw_KstDfJXk-65">
          <mxGeometry width="160" relative="1" as="geometry">
            <mxPoint x="480" y="400" as="sourcePoint" />
            <mxPoint x="640" y="400" as="targetPoint" />
          </mxGeometry>
        </mxCell>
      </root>
    </mxGraphModel>
  </diagram>
</mxfile>
